<?xml version="1.0" encoding="UTF-8" standalone="no"?>
<!DOCTYPE svg PUBLIC "-//W3C//DTD SVG 1.1//EN" "http://www.w3.org/Graphics/SVG/1.1/DTD/svg11.dtd">
<svg width="100%" height="100%" viewBox="0 0 1920 1080" version="1.1" xmlns="http://www.w3.org/2000/svg" xmlns:xlink="http://www.w3.org/1999/xlink" xml:space="preserve" xmlns:serif="http://www.serif.com/" style="fill-rule:evenodd;clip-rule:evenodd;stroke-linecap:round;stroke-linejoin:round;stroke-miterlimit:1.5;">
    <g transform="matrix(1.69866,0,0,1.70089,417.856,277.875)">
        <g transform="matrix(0.525346,0,0,0.524658,-321.333,-145.799)">
            <circle cx="1043.91" cy="285.315" r="7.44" style="fill:rgb(206,214,198);stroke:rgb(206,214,198);stroke-width:1.12px;"/>
        </g>
        <g transform="matrix(0.525346,0,0,0.524658,86.527,61.2342)">
            <circle cx="1043.91" cy="285.315" r="7.44" style="fill:rgb(206,214,198);stroke:rgb(206,214,198);stroke-width:1.12px;"/>
        </g>
        <g transform="matrix(0.525346,0,0,0.524658,-544.774,155.817)">
            <circle cx="1043.91" cy="285.315" r="7.44" style="fill:rgb(206,214,198);stroke:rgb(206,214,198);stroke-width:1.12px;"/>
        </g>
        <rect x="0" y="0" width="638.318" height="308.22" style="fill:none;"/>
        <g transform="matrix(0.0413847,0,0,0.0413386,0,0)">
            <path d="M240,7087L5200,416" style="fill:none;stroke:rgb(206,214,198);stroke-width:16.01px;stroke-linecap:butt;stroke-miterlimit:1.41421;"/>
        </g>
        <g transform="matrix(0.0413847,0,0,0.0413386,0,0)">
            <path d="M14960,4896L5936,272" style="fill:none;stroke:rgb(206,214,198);stroke-width:16.01px;stroke-linecap:butt;stroke-miterlimit:1.41421;"/>
        </g>
        <g transform="matrix(0.0413847,0,0,0.0413386,0,0)">
            <path d="M464,7376L14928,5280" style="fill:none;stroke:rgb(206,214,198);stroke-width:16.01px;stroke-linecap:butt;stroke-miterlimit:1.41421;"/>
        </g>
    </g>
</svg>
